<svg id="a6d61d97-78b4-422e-aafb-9700bff98959" data-name="Layer 1" xmlns="http://www.w3.org/2000/svg" viewBox="0 0 160.811 373.297"><g id="af9f2e5d-a45c-437b-bd7d-f8d65c890e03" data-name="base"><path d="M0,80.406V292.892a80.406,80.406,0,0,0,160.811,0c0-38.142-18.365-44.873-19.634-52.616V133.022c1.269-7.743,19.634-14.475,19.634-52.616A80.406,80.406,0,1,0,0,80.406Z" fill="#c5c6ca"/></g><g id="bdd2a6b2-1562-4049-a29f-be840734a5d8" data-name="abxy"><circle id="a0a08061-7301-4b9f-9a49-c2998dde13e5" data-name="abxy-back" cx="82.406" cy="76.984" r="67.982" fill="#6d7075"/><circle id="e13470bb-cd69-47f7-8d90-2a1e2b621330" data-name="y" cx="82.907" cy="114.399" r="15.453" fill="#298b5a"/><circle id="f1167aac-8060-4814-9b11-9504317aae6c" data-name="x" cx="55.199" cy="76.545" r="15.453" fill="#014cb1"/><circle id="bac75e34-a8d4-44bd-873f-aa7a2bc8e679" data-name="b" cx="111.004" cy="76.545" r="15.453" fill="#d1b03c"/><circle id="e58e0d87-e9fb-4215-abb7-7a85ce33ce48" data-name="a" cx="82.907" cy="41.033" r="15.453" fill="#a50e21"/></g><g id="e552d8f9-14cf-43eb-a99b-0ec61428c971" data-name="center"><g id="e0e556d9-8d28-485e-993a-fb6ea3d0d86c" data-name="start"><path d="M84.441,209.2c2.366-1.852,6.244-.886,8.616,2.146l11.2,14.314c2.373,3.032,2.377,7.028.011,8.879s-6.244.886-8.616-2.146l-11.2-14.314C82.079,215.046,82.074,211.05,84.441,209.2Z" fill="#55565a"/></g><g id="b3d2f869-5575-4444-ae1e-624a8df39ffb" data-name="select"><path d="M84.441,167.052c2.366-1.851,6.244-.886,8.616,2.146l11.2,14.314c2.373,3.033,2.377,7.028.011,8.88s-6.244.886-8.616-2.146l-11.2-14.314C82.079,172.9,82.074,168.9,84.441,167.052Z" fill="#55565a"/></g></g><g id="a2ec2a0f-a931-44e7-81bc-03f2347124d4" data-name="dpad"><g id="b7d1b6aa-aa67-4efc-aa8a-cfbdd475ac0c" data-name="dpad"><path d="M76.178,260.423a5.015,5.015,0,0,0-5,5v14.925a5.015,5.015,0,0,1-5,5H50.321a5.015,5.015,0,0,0-5,5v13.76a5.015,5.015,0,0,0,5,5H66.178a5.015,5.015,0,0,1,5,5v14.925a5.015,5.015,0,0,0,5,5h13.76a5.015,5.015,0,0,0,5-5V314.108a5.015,5.015,0,0,1,5-5h13.993a5.015,5.015,0,0,0,5-5v-13.76a5.015,5.015,0,0,0-5-5H99.938a5.015,5.015,0,0,1-5-5V265.423a5.015,5.015,0,0,0-5-5Z" fill="#55565a"/></g><g id="e354acbb-cbbb-4f3c-9511-a4beea70643b" data-name="dpad-back"><path d="M82.126,245.35a51.878,51.878,0,1,1-51.878,51.878A51.937,51.937,0,0,1,82.126,245.35m0-1A52.878,52.878,0,1,0,135,297.228,52.878,52.878,0,0,0,82.126,244.35Z" fill="#9f9fa0"/></g></g></svg>