<svg id="a0eca6b4-08e7-4177-b25a-dacd179e029c" data-name="Layer 1" xmlns="http://www.w3.org/2000/svg" viewBox="0 0 373.297 160.811"><g id="ec563e80-8504-45f9-ba9b-de54be2ea541" data-name="base"><path d="M292.892,0H80.406a80.406,80.406,0,1,0,0,160.811c38.141,0,44.873-18.365,52.616-19.634H240.276c7.743,1.269,14.474,19.634,52.616,19.634A80.406,80.406,0,0,0,292.892,0Z" fill="#c5c6ca"/></g><g id="f1cc5499-f62c-48a0-9d4a-0f4b692dd884" data-name="abxy"><circle id="a43a579a-b712-451b-9ba8-a67e58e3aa97" data-name="abxy-back" cx="296.313" cy="82.406" r="67.982" fill="#6d7075"/><circle id="b8ac604f-1506-49f0-b014-1619794f07d4" data-name="y" cx="258.898" cy="82.907" r="15.453" fill="#298b5a"/><circle id="ae417b5c-962e-487e-855b-1dbdd58906d5" data-name="x" cx="296.752" cy="55.199" r="15.453" fill="#014cb1"/><circle id="b977c5c5-8742-429e-b1f7-2dd3b21beba0" data-name="b" cx="296.752" cy="111.004" r="15.453" fill="#d1b03c"/><circle id="e0c6d035-d6f8-4389-b7d2-3fb2492672da" data-name="a" cx="332.264" cy="82.907" r="15.453" fill="#a50e21"/></g><g id="a9b7f036-86cd-47e5-afe4-4c76ebe45431" data-name="center"><g id="fa8979ea-3455-4d0e-b9d4-bf32e1c45696" data-name="start"><path d="M164.1,84.441c1.851,2.366.885,6.244-2.147,8.616l-14.314,11.2c-3.032,2.373-7.028,2.377-8.879.011s-.886-6.244,2.146-8.616l14.314-11.2C158.251,82.079,162.247,82.074,164.1,84.441Z" fill="#55565a"/></g><g id="a56db388-b135-427d-afa9-38be1dfdf248" data-name="select"><path d="M206.245,84.441c1.852,2.366.886,6.244-2.146,8.616l-14.314,11.2c-3.032,2.373-7.028,2.377-8.88.011s-.886-6.244,2.146-8.616l14.314-11.2C200.4,82.079,204.393,82.074,206.245,84.441Z" fill="#55565a"/></g></g><g id="a14a4644-d105-460b-8934-c8514dab6e0d" data-name="dpad"><g id="e13575e0-7de0-4c1a-a332-e0f14b0f792b" data-name="dpad"><path d="M112.874,76.178a5.015,5.015,0,0,0-5-5H92.949a5.015,5.015,0,0,1-5-5V50.321a5.015,5.015,0,0,0-5-5H69.189a5.015,5.015,0,0,0-5,5V66.178a5.015,5.015,0,0,1-5,5H44.264a5.015,5.015,0,0,0-5,5v13.76a5.015,5.015,0,0,0,5,5H59.189a5.015,5.015,0,0,1,5,5v13.993a5.015,5.015,0,0,0,5,5h13.76a5.015,5.015,0,0,0,5-5V99.938a5.015,5.015,0,0,1,5-5h14.925a5.015,5.015,0,0,0,5-5Z" fill="#55565a"/></g><g id="a928a029-a721-418b-98ea-3a5df85a447b" data-name="dpad-back"><path d="M76.069,30.248A51.878,51.878,0,1,1,24.191,82.126,51.937,51.937,0,0,1,76.069,30.248m0-1a52.878,52.878,0,1,0,52.878,52.878A52.878,52.878,0,0,0,76.069,29.248Z" fill="#9f9fa0"/></g></g></svg>